<?xml version="1.0" standalone="no"?>
<!DOCTYPE svg PUBLIC "-//W3C//DTD SVG 20010904//EN"
        "http://www.w3.org/TR/2001/REC-SVG-20010904/DTD/svg10.dtd">
<svg xmlns="http://www.w3.org/2000/svg"
     width="712.000000pt" height="712.000000pt" viewBox="0 0 712.000000 712.000000"
     preserveAspectRatio="xMidYMid meet">
    <metadata>
        Created by potrace 1.11, written by Peter Selinger 2001-2013
    </metadata>
    <g transform="translate(0.000000,712.000000) scale(0.100000,-0.100000)"
       fill="#000000" stroke="none">
        <path d="M1060 6000 l0 -60 123 0 c329 0 513 -107 559 -325 36 -172 37 -275
38 -2050 0 -1780 -2 -1867 -38 -2040 -29 -137 -141 -251 -287 -293 -85 -24
-150 -32 -270 -32 l-125 0 0 -60 0 -60 1243 0 c780 0 1283 4 1352 10 245 23
348 39 585 90 414 88 817 300 1119 585 188 179 425 526 515 755 10 25 24 59
31 75 28 63 88 263 105 350 7 33 16 74 20 90 4 17 13 71 19 120 7 50 16 120
21 157 6 37 10 160 10 274 0 466 -84 853 -265 1214 -147 294 -324 519 -588
745 -100 86 -345 228 -492 285 -185 72 -334 111 -610 160 -128 22 -347 46
-565 60 -91 6 -641 10 -1327 10 l-1173 0 0 -60z m2336 -210 c224 -17 386 -51
579 -120 72 -26 249 -113 325 -160 144 -89 344 -267 461 -410 156 -189 295
-456 360 -690 6 -19 15 -51 20 -70 73 -252 110 -643 89 -952 -14 -221 -44
-430 -80 -558 -51 -182 -114 -348 -172 -454 -21 -38 -38 -71 -38 -73 0 -11
-150 -226 -194 -278 -205 -243 -477 -443 -741 -544 -33 -13 -69 -27 -80 -31
-38 -15 -80 -28 -130 -40 -27 -6 -66 -15 -85 -20 -71 -17 -172 -30 -321 -41
-130 -10 -181 -9 -324 5 -218 22 -329 38 -495 73 l-85 19 0 2124 0 2125 35 6
c19 4 60 12 90 19 134 30 255 49 405 65 158 16 226 17 381 5z"/>
    </g>
</svg>
